<svg width="176" height="36" viewBox="0 0 176 36" fill="none" xmlns="http://www.w3.org/2000/svg">
<path d="M85.8518 34.0771L85.8877 33.0777L85.8518 34.0771ZM175.069 5.26416C175.61 5.37617 175.958 5.90539 175.846 6.44619L174.02 15.2591C173.908 15.8 173.379 16.1476 172.838 16.0355C172.297 15.9235 171.95 15.3943 172.062 14.8535L173.684 7.01978L165.851 5.39725C165.31 5.28524 164.962 4.75602 165.074 4.21522C165.186 3.67441 165.715 3.3268 166.256 3.43881L175.069 5.26416ZM3.58378 2.65037C3.99838 3.01523 4.03871 3.64711 3.67384 4.06171C3.30898 4.47631 2.6771 4.51664 2.2625 4.15178L3.58378 2.65037ZM10.5805 10.3647C10.1176 10.0635 9.98644 9.44411 10.2876 8.98117C10.5888 8.51823 11.2082 8.38709 11.6712 8.68826L10.5805 10.3647ZM15.9939 11.351C16.4706 11.6298 16.6311 12.2422 16.3523 12.719C16.0735 13.1958 15.4611 13.3563 14.9843 13.0775L15.9939 11.351ZM24.0938 17.9422C23.5978 17.6993 23.3926 17.1003 23.6355 16.6043C23.8784 16.1083 24.4774 15.9031 24.9734 16.146L24.0938 17.9422ZM29.5791 18.313C30.0823 18.5405 30.3058 19.1329 30.0783 19.6361C29.8507 20.1394 29.2583 20.3629 28.7551 20.1353L29.5791 18.313ZM38.2618 24.1134C37.7467 23.9143 37.4905 23.3352 37.6897 22.8201C37.8888 22.305 38.4678 22.0488 38.983 22.2479L38.2618 24.1134ZM43.7603 24.022C44.2805 24.2074 44.552 24.7794 44.3666 25.2996C44.1813 25.8199 43.6092 26.0913 43.089 25.9059L43.7603 24.022ZM52.8818 29.1036C52.3524 28.9464 52.0505 28.3898 52.2077 27.8604C52.3648 27.3309 52.9214 27.0291 53.4509 27.1862L52.8818 29.1036ZM58.3574 28.5676C58.8911 28.7096 59.2086 29.2574 59.0666 29.7911C58.9246 30.3249 58.3768 30.6424 57.8431 30.5003L58.3574 28.5676ZM67.8835 32.8432C67.3418 32.7353 66.9901 32.2088 67.098 31.6672C67.2058 31.1255 67.7323 30.7738 68.274 30.8816L67.8835 32.8432ZM73.2824 31.784C73.8277 31.8716 74.1988 32.3847 74.1112 32.93C74.0236 33.4753 73.5106 33.8463 72.9653 33.7587L73.2824 31.784ZM83.2298 34.9445C82.6787 34.9084 82.2612 34.4324 82.2973 33.8813C82.3335 33.3302 82.8095 32.9127 83.3606 32.9488L83.2298 34.9445ZM88.4638 33.1179C89.0161 33.1158 89.4655 33.5618 89.4676 34.1141C89.4697 34.6664 89.0237 35.1158 88.4714 35.1179L88.4638 33.1179ZM99.0273 34.4054C98.4792 34.4727 97.9802 34.083 97.9129 33.5348C97.8455 32.9866 98.2353 32.4877 98.7835 32.4203L99.0273 34.4054ZM103.927 31.6716C104.471 31.5806 104.987 31.9484 105.078 32.4932C105.169 33.0379 104.801 33.5533 104.256 33.6443L103.927 31.6716ZM114.584 31.537C114.046 31.665 113.507 31.3331 113.379 30.7958C113.251 30.2586 113.583 29.7193 114.12 29.5914L114.584 31.537ZM119.173 28.3123C119.706 28.1695 120.255 28.4861 120.397 29.0196C120.54 29.5531 120.224 30.1014 119.69 30.2442L119.173 28.3123ZM129.783 27.2718C129.257 27.4402 128.694 27.1503 128.526 26.6243C128.357 26.0983 128.647 25.5354 129.173 25.367L129.783 27.2718ZM134.124 23.7225C134.647 23.5428 135.216 23.8205 135.395 24.3428C135.575 24.865 135.297 25.434 134.775 25.6137L134.124 23.7225ZM144.645 21.9902C144.13 22.1909 143.55 21.9366 143.35 21.4221C143.149 20.9076 143.403 20.3278 143.918 20.127L144.645 21.9902ZM148.763 18.18C149.273 17.9689 149.858 18.2115 150.069 18.7218C150.28 19.2322 150.038 19.817 149.527 20.0281L148.763 18.18ZM159.151 15.8061C158.651 16.0392 158.056 15.8223 157.823 15.3217C157.589 14.821 157.806 14.2262 158.307 13.993L159.151 15.8061ZM163.002 11.7342C163.496 11.4881 164.097 11.6894 164.343 12.1838C164.589 12.6782 164.388 13.2785 163.893 13.5246L163.002 11.7342ZM173.183 8.48187C172.71 8.76738 172.096 8.6156 171.81 8.14284C171.525 7.67009 171.676 7.05539 172.149 6.76987L173.183 8.48187ZM1.75592 0.951391C2.32729 1.5147 2.93719 2.08136 3.58378 2.65037L2.2625 4.15178C1.58995 3.55991 0.952212 2.96756 0.351793 2.37562L1.75592 0.951391ZM11.6712 8.68826C13.0448 9.58187 14.4884 10.4707 15.9939 11.351L14.9843 13.0775C13.4535 12.1824 11.9828 11.277 10.5805 10.3647L11.6712 8.68826ZM24.9734 16.146C26.4751 16.8814 28.0122 17.6045 29.5791 18.313L28.7551 20.1353C27.1702 19.4187 25.6145 18.6869 24.0938 17.9422L24.9734 16.146ZM38.983 22.2479C40.5604 22.8577 42.1545 23.4498 43.7603 24.022L43.089 25.9059C41.4665 25.3278 39.8559 24.7296 38.2618 24.1134L38.983 22.2479ZM53.4509 27.1862C55.0863 27.6716 56.7234 28.1328 58.3574 28.5676L57.8431 30.5003C56.1904 30.0605 54.535 29.5942 52.8818 29.1036L53.4509 27.1862ZM68.274 30.8816C69.9605 31.2174 71.6319 31.519 73.2824 31.784L72.9653 33.7587C71.289 33.4895 69.5931 33.1835 67.8835 32.8432L68.274 30.8816ZM83.3606 32.9488C84.2137 33.0047 85.0564 33.0478 85.8877 33.0777L85.8159 35.0764C84.9641 35.0458 84.1017 35.0017 83.2298 34.9445L83.3606 32.9488ZM85.8877 33.0777C86.7323 33.1081 87.5913 33.1212 88.4638 33.1179L88.4714 35.1179C87.5739 35.1213 86.6883 35.1078 85.8159 35.0764L85.8877 33.0777ZM98.7835 32.4203C100.473 32.2128 102.19 31.9619 103.927 31.6716L104.256 33.6443C102.493 33.9389 100.748 34.1941 99.0273 34.4054L98.7835 32.4203ZM114.12 29.5914C115.8 29.1916 117.486 28.7641 119.173 28.3123L119.69 30.2442C117.986 30.7006 116.282 31.1327 114.584 31.537L114.12 29.5914ZM129.173 25.367C130.835 24.835 132.487 24.2857 134.124 23.7225L134.775 25.6137C133.125 26.1814 131.459 26.7353 129.783 27.2718L129.173 25.367ZM143.918 20.127C145.564 19.4845 147.181 18.8342 148.763 18.18L149.527 20.0281C147.934 20.6874 146.304 21.3427 144.645 21.9902L143.918 20.127ZM158.307 13.993C159.943 13.2312 161.511 12.4761 163.002 11.7342L163.893 13.5246C162.386 14.2747 160.802 15.0373 159.151 15.8061L158.307 13.993ZM172.149 6.76987C172.929 6.29861 173.653 5.84365 174.317 5.40755L175.415 7.0792C174.728 7.53091 173.982 7.99932 173.183 8.48187L172.149 6.76987Z" fill="#D0D0D0"/>
</svg>
