<svg width="176" height="35" viewBox="0 0 176 35" fill="none" xmlns="http://www.w3.org/2000/svg">
<path d="M85.8518 1.15829L85.8877 2.15764L85.8518 1.15829ZM175.069 29.9712C175.61 29.8592 175.958 29.33 175.846 28.7892L174.02 19.9762C173.908 19.4354 173.379 19.0878 172.838 19.1998C172.297 19.3118 171.95 19.841 172.062 20.3818L173.684 28.2156L165.851 29.8381C165.31 29.9501 164.962 30.4793 165.074 31.0201C165.186 31.5609 165.715 31.9086 166.256 31.7965L175.069 29.9712ZM3.58378 32.585C3.99838 32.2201 4.03871 31.5882 3.67384 31.1736C3.30898 30.759 2.6771 30.7187 2.2625 31.0836L3.58378 32.585ZM10.5805 24.8706C10.1176 25.1718 9.98644 25.7912 10.2876 26.2542C10.5888 26.7171 11.2082 26.8483 11.6712 26.5471L10.5805 24.8706ZM15.9939 23.8844C16.4706 23.6056 16.6311 22.9931 16.3523 22.5163C16.0735 22.0396 15.4611 21.8791 14.9843 22.1579L15.9939 23.8844ZM24.0938 17.2932C23.5978 17.5361 23.3926 18.135 23.6355 18.6311C23.8784 19.1271 24.4774 19.3322 24.9734 19.0894L24.0938 17.2932ZM29.5791 16.9224C30.0823 16.6949 30.3058 16.1025 30.0783 15.5992C29.8507 15.096 29.2583 14.8725 28.7551 15.1L29.5791 16.9224ZM38.2618 11.122C37.7467 11.3211 37.4905 11.9001 37.6897 12.4153C37.8888 12.9304 38.4678 13.1866 38.983 12.9874L38.2618 11.122ZM43.7603 11.2134C44.2805 11.028 44.552 10.456 44.3666 9.93574C44.1813 9.41549 43.6092 9.14403 43.089 9.32941L43.7603 11.2134ZM52.8818 6.13179C52.3524 6.28894 52.0505 6.84554 52.2077 7.37499C52.3648 7.90445 52.9214 8.20627 53.4509 8.04912L52.8818 6.13179ZM58.3574 6.66774C58.8911 6.52571 59.2086 5.97791 59.0666 5.4442C58.9246 4.91049 58.3768 4.59297 57.8431 4.735L58.3574 6.66774ZM67.8835 2.3922C67.3418 2.50002 66.9901 3.02653 67.098 3.56819C67.2058 4.10984 67.7323 4.46153 68.274 4.35371L67.8835 2.3922ZM73.2824 3.45131C73.8277 3.36374 74.1988 2.85069 74.1112 2.3054C74.0236 1.7601 73.5106 1.38904 72.9653 1.47661L73.2824 3.45131ZM83.2298 0.290822C82.6787 0.326951 82.2612 0.802996 82.2973 1.3541C82.3335 1.9052 82.8095 2.32267 83.3606 2.28654L83.2298 0.290822ZM88.4638 2.11742C89.0161 2.11952 89.4655 1.67351 89.4676 1.12122C89.4697 0.568944 89.0237 0.119532 88.4714 0.117436L88.4638 2.11742ZM99.0273 0.829947C98.4792 0.762612 97.9802 1.1524 97.9129 1.70057C97.8455 2.24873 98.2353 2.74769 98.7835 2.81503L99.0273 0.829947ZM103.927 3.5637C104.471 3.65472 104.987 3.28691 105.078 2.74217C105.169 2.19744 104.801 1.68206 104.256 1.59105L103.927 3.5637ZM114.584 3.69832C114.046 3.5704 113.507 3.90225 113.379 4.43952C113.251 4.97678 113.583 5.51602 114.12 5.64393L114.584 3.69832ZM119.173 6.92304C119.706 7.0659 120.255 6.74923 120.397 6.21575C120.54 5.68226 120.224 5.13397 119.69 4.99111L119.173 6.92304ZM129.783 7.96352C129.257 7.79515 128.694 8.08506 128.526 8.61105C128.357 9.13704 128.647 9.69994 129.173 9.86831L129.783 7.96352ZM134.124 11.5129C134.647 11.6925 135.216 11.4148 135.395 10.8926C135.575 10.3703 135.297 9.80133 134.775 9.62165L134.124 11.5129ZM144.645 13.2452C144.13 13.0444 143.55 13.2988 143.35 13.8133C143.149 14.3278 143.403 14.9076 143.918 15.1084L144.645 13.2452ZM148.763 17.0553C149.273 17.2664 149.858 17.0239 150.069 16.5135C150.28 16.0032 150.038 15.4183 149.527 15.2072L148.763 17.0553ZM159.151 19.4292C158.651 19.1961 158.056 19.413 157.823 19.9137C157.589 20.4143 157.806 21.0092 158.307 21.2423L159.151 19.4292ZM163.002 23.5012C163.496 23.7473 164.097 23.546 164.343 23.0515C164.589 22.5571 164.388 21.9568 163.893 21.7107L163.002 23.5012ZM173.183 26.7535C172.71 26.468 172.096 26.6198 171.81 27.0925C171.525 27.5653 171.676 28.18 172.149 28.4655L173.183 26.7535ZM1.75592 34.284C2.32729 33.7207 2.93719 33.154 3.58378 32.585L2.2625 31.0836C1.58995 31.6754 0.952212 32.2678 0.351793 32.8597L1.75592 34.284ZM11.6712 26.5471C13.0448 25.6535 14.4884 24.7647 15.9939 23.8844L14.9843 22.1579C13.4535 23.053 11.9828 23.9584 10.5805 24.8706L11.6712 26.5471ZM24.9734 19.0894C26.4751 18.354 28.0122 17.6308 29.5791 16.9224L28.7551 15.1C27.1702 15.8166 25.6145 16.5485 24.0938 17.2932L24.9734 19.0894ZM38.983 12.9874C40.5604 12.3776 42.1545 11.7856 43.7603 11.2134L43.089 9.32941C41.4665 9.90753 39.8559 10.5058 38.2618 11.122L38.983 12.9874ZM53.4509 8.04912C55.0863 7.56373 56.7234 7.10256 58.3574 6.66774L57.8431 4.735C56.1904 5.17482 54.535 5.64113 52.8818 6.13179L53.4509 8.04912ZM68.274 4.35371C69.9605 4.01799 71.6319 3.71638 73.2824 3.45131L72.9653 1.47661C71.289 1.74582 69.5931 2.05187 67.8835 2.3922L68.274 4.35371ZM83.3606 2.28654C84.2137 2.23061 85.0564 2.18752 85.8877 2.15764L85.8159 0.158934C84.9641 0.189543 84.1017 0.23366 83.2298 0.290822L83.3606 2.28654ZM85.8877 2.15764C86.7323 2.12729 87.5913 2.11411 88.4638 2.11742L88.4714 0.117436C87.5739 0.114029 86.6883 0.127585 85.8159 0.158934L85.8877 2.15764ZM98.7835 2.81503C100.473 3.02258 102.19 3.27347 103.927 3.5637L104.256 1.59105C102.493 1.29642 100.748 1.04128 99.0273 0.829947L98.7835 2.81503ZM114.12 5.64393C115.8 6.04379 117.486 6.47128 119.173 6.92304L119.69 4.99111C117.986 4.53479 116.282 4.1027 114.584 3.69832L114.12 5.64393ZM129.173 9.86831C130.835 10.4003 132.487 10.9496 134.124 11.5129L134.775 9.62165C133.125 9.0539 131.459 8.50006 129.783 7.96352L129.173 9.86831ZM143.918 15.1084C145.564 15.7509 147.181 16.4012 148.763 17.0553L149.527 15.2072C147.934 14.548 146.304 13.8926 144.645 13.2452L143.918 15.1084ZM158.307 21.2423C159.943 22.0042 161.511 22.7593 163.002 23.5012L163.893 21.7107C162.386 20.9607 160.802 20.1981 159.151 19.4292L158.307 21.2423ZM172.149 28.4655C172.929 28.9367 173.653 29.3917 174.317 29.8278L175.415 28.1562C174.728 27.7044 173.982 27.236 173.183 26.7535L172.149 28.4655Z" fill="#D0D0D0"/>
</svg>
