<svg width="112" height="98" viewBox="0 0 112 98" fill="none" xmlns="http://www.w3.org/2000/svg">
<g filter="url(#filter0_d_25_192)">
<circle cx="56" cy="48" r="30" fill="url(#paint0_linear_25_192)"/>
</g>
<path fill-rule="evenodd" clip-rule="evenodd" d="M52.5005 38H59.5005C59.7767 38 60.0005 38.2238 60.0005 38.4998V39.4993C60.0005 39.7753 59.7767 39.999 59.5005 39.999H59.0005V43.5173C58.9984 44.1877 59.3326 44.8145 59.8905 45.1865C62.4537 46.899 63.5942 50.0861 62.6989 53.035C61.8037 55.9838 59.0836 58 56.0005 58C52.9174 58 50.1974 55.9838 49.3021 53.035C48.4069 50.0861 49.5473 46.899 52.1105 45.1865C52.6685 44.8145 53.0027 44.1877 53.0005 43.5173V39.999H52.5005C52.2244 39.999 52.0005 39.7753 52.0005 39.4993V38.4998C52.0005 38.2238 52.2244 38 52.5005 38ZM58.7806 46.8459C57.6678 46.1037 56.9998 44.8546 57.0006 43.5175V39.9992H55.0006V43.5175C55.0015 44.8546 54.3335 46.1037 53.2206 46.8459C51.8351 47.7722 51.0026 49.3278 51.0006 50.9939H61.0006C60.9987 49.3278 60.1661 47.7722 58.7806 46.8459Z" fill="white"/>
<defs>
<filter id="filter0_d_25_192" x="0.65786" y="0.260502" width="110.684" height="110.684" filterUnits="userSpaceOnUse" color-interpolation-filters="sRGB">
<feFlood flood-opacity="0" result="BackgroundImageFix"/>
<feColorMatrix in="SourceAlpha" type="matrix" values="0 0 0 0 0 0 0 0 0 0 0 0 0 0 0 0 0 0 127 0" result="hardAlpha"/>
<feOffset dy="7.60264"/>
<feGaussianBlur stdDeviation="12.6711"/>
<feComposite in2="hardAlpha" operator="out"/>
<feColorMatrix type="matrix" values="0 0 0 0 0.615686 0 0 0 0 0.623529 0 0 0 0 0.866667 0 0 0 0.1 0"/>
<feBlend mode="normal" in2="BackgroundImageFix" result="effect1_dropShadow_25_192"/>
<feBlend mode="normal" in="SourceGraphic" in2="effect1_dropShadow_25_192" result="shape"/>
</filter>
<linearGradient id="paint0_linear_25_192" x1="34.8393" y1="26.0357" x2="77.9643" y2="68.3571" gradientUnits="userSpaceOnUse">
<stop stop-color="#8B96FF"/>
<stop offset="1" stop-color="#4353FF"/>
</linearGradient>
</defs>
</svg>
