<svg width="40" height="40" viewBox="0 0 40 40" fill="none" xmlns="http://www.w3.org/2000/svg">
<path fill-rule="evenodd" clip-rule="evenodd" d="M6.5557 24.2641C7.062 23.5568 7.2124 22.6633 7.09178 21.8011C6.92632 20.6056 6.92632 19.3929 7.09178 18.1974C7.2124 17.3352 7.062 16.4432 6.5557 15.7344L5.64286 14.4567L5.61903 14.4239C5.22143 13.8685 4.88936 13.4024 4.64216 12.9944C4.38454 12.5685 4.17904 12.1411 4.08076 11.6527C3.92816 10.8957 3.99269 10.111 4.2669 9.38919C4.4456 8.92161 4.71811 8.53443 5.04274 8.15619C5.35248 7.79582 5.75752 7.39078 6.24 6.9083L6.26978 6.87852L6.87884 6.26946L6.90862 6.23968C7.38961 5.75869 7.79614 5.35216 8.15502 5.04242C8.53326 4.71779 8.92193 4.44528 9.38802 4.26807C10.1097 3.99336 10.8944 3.92832 11.6515 4.08044C12.1414 4.17872 12.5688 4.38422 12.9947 4.64333C13.4012 4.88904 13.8688 5.2226 14.4243 5.61871L14.457 5.64254L15.7347 6.55538C16.4435 7.06168 17.3355 7.21208 18.1977 7.09295C19.3933 6.92753 20.6059 6.92753 21.8014 7.09295C22.6651 7.21208 23.5556 7.06168 24.2644 6.55538L25.5421 5.64254L25.5764 5.61871C26.1303 5.2226 26.5979 4.88904 27.0044 4.64333C27.4303 4.38422 27.8577 4.17872 28.3462 4.08044C29.1037 3.92803 29.889 3.99308 30.6111 4.26807C31.0772 4.44528 31.4659 4.71779 31.8426 5.04242C32.203 5.35216 32.6095 5.7572 33.0905 6.23968L33.1203 6.26946L33.7309 6.88001L33.7591 6.9083C34.2416 7.39078 34.6467 7.79582 34.9564 8.15619C35.281 8.53443 35.5536 8.92161 35.7308 9.38771C36.0055 10.1094 36.0705 10.8941 35.9184 11.6512C35.8201 12.1426 35.6146 12.5685 35.357 12.9959C35.1098 13.4024 34.7762 13.8685 34.3801 14.4239L34.3563 14.4567L33.4435 15.7344C32.9371 16.4432 32.7867 17.3352 32.9059 18.1974C33.0714 19.3929 33.0714 20.6056 32.9059 21.8011C32.7867 22.6648 32.9371 23.5553 33.4435 24.2641L34.3563 25.5418L34.3801 25.5761C34.7777 26.1315 35.1098 26.5976 35.357 27.0041C35.6146 27.43 35.8201 27.8574 35.9184 28.3458C36.0708 29.1034 36.0057 29.8886 35.7308 30.6108C35.5536 31.0769 35.281 31.4656 34.9564 31.8438C34.6467 32.2042 34.2416 32.6092 33.7577 33.0917L33.7294 33.1215L33.1203 33.729L33.0905 33.7588C32.6095 34.2413 32.203 34.6464 31.8426 34.9561C31.4659 35.2807 31.0772 35.5547 30.6111 35.7304C29.8896 36.0056 29.1049 36.0712 28.3476 35.9196C27.8562 35.8213 27.4303 35.6143 27.003 35.3567C26.5979 35.111 26.1303 34.7759 25.5764 34.3813L25.5421 34.356L24.2644 33.4446C23.5556 32.9383 22.6636 32.7864 21.8014 32.9056C20.6059 33.071 19.3933 33.071 18.1977 32.9056C17.334 32.7864 16.4435 32.9383 15.7347 33.4446L14.457 34.3575L14.4228 34.3798C13.8688 34.7774 13.4012 35.1095 12.9947 35.3567C12.5688 35.6143 12.1414 35.8213 11.653 35.9196C10.8954 36.072 10.1102 36.0069 9.38802 35.7319C8.92193 35.5532 8.53326 35.2807 8.15651 34.9561C7.72616 34.5718 7.30944 34.1724 6.90713 33.7588L6.87735 33.729L6.26978 33.12L6.24 33.0917C5.82643 32.6899 5.42709 32.2737 5.04274 31.8438C4.71811 31.4656 4.4456 31.0769 4.26839 30.6108C3.99368 29.8891 3.92864 29.1044 4.08076 28.3473C4.17904 27.8574 4.38454 27.43 4.64216 27.0041C4.88936 26.5976 5.22292 26.1315 5.61903 25.5746L5.64286 25.5418L6.5557 24.2656V24.2641ZM19.9996 24.4667C21.1844 24.4667 22.3207 23.996 23.1585 23.1582C23.9963 22.3204 24.467 21.1841 24.467 19.9993C24.467 18.8144 23.9963 17.6781 23.1585 16.8403C22.3207 16.0025 21.1844 15.5319 19.9996 15.5319C18.8147 15.5319 17.6784 16.0025 16.8406 16.8403C16.0029 17.6781 15.5322 18.8144 15.5322 19.9993C15.5322 21.1841 16.0029 22.3204 16.8406 23.1582C17.6784 23.996 18.8147 24.4667 19.9996 24.4667Z" fill="#34C759"/>
</svg>
