<svg width="135" height="120" viewBox="0 0 135 120" fill="none" xmlns="http://www.w3.org/2000/svg">
<path d="M87.8141 78.6535L87.1599 77.8971L87.8141 78.6535ZM0.228398 112.1C-0.122897 112.526 -0.0622038 113.156 0.363948 113.508L7.30858 119.232C7.73474 119.584 8.36498 119.523 8.71628 119.097C9.06758 118.671 9.00689 118.04 8.58073 117.689L2.40773 112.601L7.49635 106.428C7.84764 106.001 7.78695 105.371 7.3608 105.02C6.93463 104.669 6.30438 104.729 5.95309 105.155L0.228398 112.1ZM132.239 2.61325C132.144 3.15738 132.509 3.67511 133.053 3.76962C133.597 3.86412 134.115 3.49963 134.209 2.95549L132.239 2.61325ZM131.619 13.0095C131.791 12.4847 131.506 11.9198 130.981 11.7477C130.456 11.5756 129.891 11.8615 129.719 12.3863L131.619 13.0095ZM128.018 17.17C127.822 17.686 128.08 18.264 128.596 18.4608C129.112 18.6577 129.69 18.399 129.887 17.883L128.018 17.17ZM125.836 27.3822C126.07 26.8821 125.855 26.2867 125.355 26.0523C124.854 25.818 124.259 26.0334 124.025 26.5335L125.836 27.3822ZM121.793 31.1081C121.543 31.6008 121.74 32.2025 122.233 32.4522C122.726 32.7018 123.327 32.5048 123.577 32.0122L121.793 31.1081ZM118.66 41.0692C118.937 40.5913 118.774 39.9795 118.296 39.7028C117.818 39.4261 117.206 39.5892 116.93 40.0672L118.66 41.0692ZM114.318 44.4432C114.029 44.9137 114.175 45.5296 114.646 45.8189C115.116 46.1082 115.732 45.9613 116.022 45.4909L114.318 44.4432ZM110.393 54.119C110.707 53.6647 110.594 53.0418 110.139 52.7277C109.685 52.4135 109.062 52.527 108.748 52.9812L110.393 54.119ZM105.79 57.1322C105.463 57.5773 105.559 58.2032 106.004 58.5301C106.449 58.8571 107.075 58.7613 107.402 58.3162L105.79 57.1322ZM101.045 66.4332C101.399 66.0098 101.343 65.3791 100.92 65.0245C100.497 64.6699 99.8658 64.7257 99.5112 65.1492L101.045 66.4332ZM96.1733 68.9907C95.8032 69.4006 95.8354 70.0329 96.2454 70.403C96.6553 70.7732 97.2876 70.7409 97.6577 70.331L96.1733 68.9907ZM90.4011 77.6866C90.8079 77.3132 90.835 76.6806 90.4615 76.2737C90.0881 75.8669 89.4555 75.8398 89.0486 76.2133L90.4011 77.6866ZM85.1774 79.5426C84.7456 79.8871 84.6748 80.5163 85.0193 80.948C85.3637 81.3797 85.9929 81.4505 86.4246 81.1061L85.1774 79.5426ZM77.7513 87.165C78.2208 86.874 78.3654 86.2575 78.0744 85.7881C77.7834 85.3187 77.167 85.1741 76.6976 85.4651L77.7513 87.165ZM72.22 88.1043C71.7385 88.3747 71.5673 88.9842 71.8377 89.4658C72.108 89.9474 72.7176 90.1186 73.1992 89.8482L72.22 88.1043ZM63.8303 94.6767C64.3291 94.4398 64.5415 93.8433 64.3045 93.3444C64.0676 92.8455 63.4711 92.6332 62.9722 92.8701L63.8303 94.6767ZM58.2331 95.039C57.7278 95.262 57.4989 95.8523 57.7219 96.3576C57.9448 96.8629 58.5351 97.0918 59.0404 96.8688L58.2331 95.039ZM49.3122 100.876C49.8276 100.678 50.0846 100.099 49.8863 99.5838C49.6879 99.0683 49.1093 98.8113 48.5939 99.0096L49.3122 100.876ZM43.7046 100.83C43.1851 101.017 42.9156 101.59 43.1028 102.11C43.29 102.63 43.863 102.899 44.3826 102.712L43.7046 100.83ZM34.42 106.072C34.9468 105.906 35.2393 105.345 35.0734 104.818C34.9075 104.291 34.346 103.999 33.8192 104.165L34.42 106.072ZM28.8232 105.683C28.2932 105.838 27.9894 106.394 28.1446 106.924C28.2999 107.454 28.8554 107.758 29.3854 107.602L28.8232 105.683ZM19.2395 110.342C19.7758 110.21 20.1035 109.668 19.9715 109.132C19.8395 108.596 19.2977 108.268 18.7614 108.4L19.2395 110.342ZM13.6871 109.581C13.1475 109.699 12.8058 110.232 12.9238 110.772C13.0418 111.311 13.5748 111.653 14.1143 111.535L13.6871 109.581ZM3.71447 113.426C4.26182 113.352 4.64578 112.849 4.57208 112.301C4.49838 111.754 3.99493 111.37 3.44757 111.444L3.71447 113.426ZM132.599 0.143832C132.506 0.940865 132.386 1.76464 132.239 2.61325L134.209 2.95549C134.362 2.0728 134.488 1.21156 134.585 0.374012L132.599 0.143832ZM129.719 12.3863C129.208 13.9434 128.64 15.5407 128.018 17.17L129.887 17.883C130.519 16.2263 131.098 14.5991 131.619 13.0095L129.719 12.3863ZM124.025 26.5335C123.315 28.0475 122.57 29.5743 121.793 31.1081L123.577 32.0122C124.363 30.4606 125.117 28.9154 125.836 27.3822L124.025 26.5335ZM116.93 40.0672C116.082 41.5309 115.211 42.9911 114.318 44.4432L116.022 45.4909C116.924 44.0237 117.804 42.5483 118.66 41.0692L116.93 40.0672ZM108.748 52.9812C107.778 54.3843 106.791 55.7695 105.79 57.1322L107.402 58.3162C108.414 56.9379 109.412 55.5372 110.393 54.119L108.748 52.9812ZM99.5112 65.1492C98.4072 66.4675 97.2936 67.7499 96.1733 68.9907L97.6577 70.331C98.7955 69.0708 99.9254 67.7697 101.045 66.4332L99.5112 65.1492ZM89.0486 76.2133C88.4188 76.7914 87.7891 77.353 87.1599 77.8971L88.4682 79.4098C89.1129 78.8523 89.7573 78.2775 90.4011 77.6866L89.0486 76.2133ZM87.1599 77.8971C86.5207 78.45 85.8594 78.9985 85.1774 79.5426L86.4246 81.1061C87.1263 80.5464 87.808 79.9809 88.4682 79.4098L87.1599 77.8971ZM76.6976 85.4651C75.2507 86.362 73.7557 87.2421 72.22 88.1043L73.1992 89.8482C74.7581 88.9729 76.2781 88.0782 77.7513 87.165L76.6976 85.4651ZM62.9722 92.8701C61.4127 93.6109 59.8309 94.3341 58.2331 95.039L59.0404 96.8688C60.6544 96.1568 62.2531 95.4258 63.8303 94.6767L62.9722 92.8701ZM48.5939 99.0096C46.9652 99.6364 45.3334 100.243 43.7046 100.83L44.3826 102.712C46.0244 102.12 47.6697 101.508 49.3122 100.876L48.5939 99.0096ZM33.8192 104.165C32.1333 104.696 30.4655 105.202 28.8232 105.683L29.3854 107.602C31.0405 107.118 32.7212 106.607 34.42 106.072L33.8192 104.165ZM18.7614 108.4C17.009 108.831 15.3136 109.226 13.6871 109.581L14.1143 111.535C15.7587 111.176 17.471 110.777 19.2395 110.342L18.7614 108.4ZM3.44757 111.444C2.54416 111.566 1.69488 111.665 0.904179 111.741L1.09587 113.731C1.91488 113.653 2.78942 113.551 3.71447 113.426L3.44757 111.444Z" fill="#D0D0D0"/>
</svg>
