<svg width="211" height="72" viewBox="0 0 211 72" fill="none" xmlns="http://www.w3.org/2000/svg">
<path d="M27.3265 52.7446L14.5473 25.0966L1.96911 52.7446H0.401855L14.5875 21.9219L28.7732 52.7446H27.3265ZM68.5808 52.7446H67.1743L61.4679 41.2513H45.4739L39.8881 52.7446H38.4816L53.5111 21.8817L68.5808 52.7446ZM60.9857 40.086L53.4307 24.7751L46.0365 40.086H60.9857ZM80.9372 22.605H82.2633V50.6951L103.2 22.605H104.526V52.7446H103.2V24.5741L82.183 52.7446H80.9372V22.605ZM92.8725 19.9126C91.0775 19.9126 89.671 19.5107 88.6529 18.707C87.6617 17.9033 87.1259 16.7513 87.0455 15.251H88.1707C88.2779 16.4298 88.7333 17.3273 89.537 17.9434C90.3407 18.5596 91.4392 18.8677 92.8323 18.8677C94.0379 18.8677 95.0827 18.5194 95.9668 17.8229C96.8777 17.1263 97.3867 16.269 97.4939 15.251H98.6592C98.6057 16.5637 98.0163 17.6755 96.8911 18.5864C95.7659 19.4705 94.4263 19.9126 92.8725 19.9126ZM123.386 23.7704H116.434V22.605H131.584V23.7704H124.712V52.7446H123.386V23.7704Z" fill="black"/>
<path d="M175.605 13.9443V24.4095" stroke="#34C759" stroke-width="2" stroke-linecap="round" stroke-linejoin="round"/>
<path d="M188.712 15.6377C193.054 18.4633 196.367 22.6163 198.156 27.4777C199.945 32.3391 200.116 37.6486 198.642 42.6147C197.169 47.581 194.13 51.9383 189.978 55.0368C185.827 58.1353 180.785 59.8093 175.605 59.8093C170.424 59.8093 165.383 58.1353 161.231 55.0368C157.08 51.9383 154.041 47.581 152.567 42.6147C151.093 37.6486 151.264 32.3391 153.053 27.4777C154.843 22.6163 158.155 18.4633 162.497 15.6377" stroke="#34C759" stroke-width="2" stroke-linecap="round" stroke-linejoin="round"/>
<path d="M203.023 53.8093C199.167 59.7087 193.5 64.2096 186.866 66.6412C180.232 69.0725 172.986 69.3044 166.209 67.3018C159.431 65.2996 153.486 61.1701 149.257 55.5294C145.029 49.8887 142.744 43.0386 142.744 35.9998C142.744 28.9611 145.029 22.111 149.257 16.4702C153.486 10.8294 159.431 6.70011 166.209 4.69772C172.986 2.69537 180.232 2.92715 186.866 5.35853C193.5 7.78991 199.167 12.2907 203.023 18.1901" stroke="#34C759" stroke-width="6" stroke-linecap="round" stroke-linejoin="round"/>
<path d="M163.919 20.0928C163.456 20.0928 163.082 20.4676 163.082 20.93V51.0695C163.082 51.5321 163.456 51.9067 163.919 51.9067H165.245C165.708 51.9067 166.082 51.5321 166.082 51.0695V40.4135H185.063V51.0695C185.063 51.5321 185.438 51.9067 185.901 51.9067H187.227C187.689 51.9067 188.064 51.5321 188.064 51.0695V20.93C188.064 20.4676 187.689 20.0928 187.227 20.0928H185.901C185.438 20.0928 185.063 20.4676 185.063 20.93V37.5737H166.082V20.93C166.082 20.4676 165.708 20.0928 165.245 20.0928H163.919Z" fill="#34C759" stroke="#34C759" stroke-linejoin="round"/>
</svg>
