<svg width="112" height="98" viewBox="0 0 112 98" fill="none" xmlns="http://www.w3.org/2000/svg">
<g filter="url(#filter0_d_25_191)">
<circle cx="56" cy="48" r="30" fill="url(#paint0_linear_25_191)"/>
</g>
<path fill-rule="evenodd" clip-rule="evenodd" d="M46 48C46 42.4772 50.4772 38 56 38C58.6522 38 61.1957 39.0536 63.0711 40.9289C64.9464 42.8043 66 45.3478 66 48C66 53.5228 61.5228 58 56 58C50.4772 58 46 53.5228 46 48ZM58 52.9996C59.1046 52.9996 60 52.1041 60 50.9996V50.7496C60 50.4734 59.7761 50.2496 59.5 50.2496H58.75C58.4739 50.2496 58.25 50.4734 58.25 50.7496V50.9996C58.25 51.1376 58.1381 51.2496 58 51.2496H55.14C55.3467 50.6875 55.468 50.0976 55.5 49.4996C55.5102 49.333 55.5102 49.1661 55.5 48.9996H56.5C56.7761 48.9996 57 48.7757 57 48.4996V47.4996C57 47.2234 56.7761 46.9996 56.5 46.9996H54.95C54.8418 46.6759 54.7746 46.3399 54.75 45.9996C54.7449 45.3756 55.2008 44.8434 55.8182 44.7527C56.4356 44.662 57.0253 45.0405 57.2 45.6396C57.2622 45.8529 57.4578 45.9996 57.68 45.9996H58.45C58.5996 45.9973 58.7412 45.9319 58.84 45.8196C58.9314 45.7001 58.9678 45.5474 58.94 45.3996C58.6333 43.8891 57.232 42.8568 55.6985 43.0117C54.165 43.1666 52.9984 44.4583 53 45.9996C53.0087 46.3338 53.0557 46.666 53.14 46.9896H52.5C52.2239 46.9896 52 47.2134 52 47.4896V48.4896C52 48.7657 52.2239 48.9896 52.5 48.9896H53.73C53.7691 49.1534 53.7892 49.3211 53.79 49.4896C53.6616 50.3629 53.395 51.2102 53 51.9996C52.9074 52.1768 52.9269 52.3919 53.05 52.5496L53.31 52.8396C53.4068 52.9405 53.5402 52.9981 53.68 52.9996H58Z" fill="white"/>
<defs>
<filter id="filter0_d_25_191" x="0.65786" y="0.260502" width="110.684" height="110.684" filterUnits="userSpaceOnUse" color-interpolation-filters="sRGB">
<feFlood flood-opacity="0" result="BackgroundImageFix"/>
<feColorMatrix in="SourceAlpha" type="matrix" values="0 0 0 0 0 0 0 0 0 0 0 0 0 0 0 0 0 0 127 0" result="hardAlpha"/>
<feOffset dy="7.60264"/>
<feGaussianBlur stdDeviation="12.6711"/>
<feComposite in2="hardAlpha" operator="out"/>
<feColorMatrix type="matrix" values="0 0 0 0 0.615686 0 0 0 0 0.623529 0 0 0 0 0.866667 0 0 0 0.1 0"/>
<feBlend mode="normal" in2="BackgroundImageFix" result="effect1_dropShadow_25_191"/>
<feBlend mode="normal" in="SourceGraphic" in2="effect1_dropShadow_25_191" result="shape"/>
</filter>
<linearGradient id="paint0_linear_25_191" x1="26.2136" y1="18" x2="86.2135" y2="77.8944" gradientUnits="userSpaceOnUse">
<stop offset="0.0104167" stop-color="#8F5FFF"/>
<stop offset="1" stop-color="#5206FF"/>
</linearGradient>
</defs>
</svg>
