<svg width="135" height="66" viewBox="0 0 135 66" fill="none" xmlns="http://www.w3.org/2000/svg">
<path d="M133.191 1.05479C133.161 0.780316 133.359 0.533274 133.634 0.503012C133.908 0.472749 134.155 0.670726 134.185 0.945205L133.191 1.05479ZM20.9911 9.8L20.8127 9.3329L20.9911 9.8ZM7.82083 65.1575C7.73385 65.4196 7.45088 65.5615 7.18879 65.4745L2.91785 64.0572C2.65575 63.9702 2.51379 63.6872 2.60078 63.4251C2.68776 63.163 2.97073 63.0211 3.23282 63.1081L7.02921 64.368L8.28911 60.5716C8.37609 60.3095 8.65907 60.1675 8.92115 60.2545C9.18324 60.3415 9.32519 60.6245 9.23821 60.8865L7.82083 65.1575ZM134.556 4.75601C134.58 5.03118 134.375 5.273 134.1 5.29612C133.825 5.31925 133.583 5.11493 133.56 4.83975L134.556 4.75601ZM133.825 8.63449C133.81 8.35876 134.021 8.12295 134.297 8.10779C134.572 8.09262 134.808 8.30385 134.823 8.57958L133.825 8.63449ZM134.99 16.2476C134.986 16.5237 134.759 16.7443 134.482 16.7403C134.206 16.7363 133.986 16.5092 133.99 16.2331L134.99 16.2476ZM133.856 20.027C133.872 19.7513 134.108 19.5406 134.384 19.5563C134.659 19.572 134.87 19.8082 134.854 20.0839L133.856 20.027ZM134.027 27.7259C133.981 27.9983 133.724 28.1824 133.451 28.1371C133.179 28.0919 132.995 27.8343 133.04 27.5619L134.027 27.7259ZM132.294 31.2705C132.358 31.0019 132.628 30.8361 132.897 30.9002C133.165 30.9643 133.331 31.234 133.267 31.5026L132.294 31.2705ZM130.831 38.8227C130.719 39.0749 130.423 39.188 130.171 39.0755C129.919 38.9629 129.806 38.6673 129.918 38.4151L130.831 38.8227ZM128.187 41.7453C128.33 41.5088 128.637 41.4327 128.874 41.5753C129.11 41.7179 129.186 42.0252 129.044 42.2616L128.187 41.7453ZM124.1 48.2408C123.892 48.4228 123.576 48.4019 123.394 48.1942C123.212 47.9865 123.233 47.6706 123.441 47.4887L124.1 48.2408ZM120.437 49.6954C120.673 49.5516 120.981 49.6262 121.124 49.862C121.268 50.0978 121.194 50.4054 120.958 50.5492L120.437 49.6954ZM113.768 53.4574C113.499 53.521 113.23 53.3547 113.166 53.086C113.103 52.8173 113.269 52.5479 113.538 52.4843L113.768 53.4574ZM109.845 53.1071C110.12 53.078 110.366 53.277 110.395 53.5516C110.424 53.8262 110.225 54.0724 109.951 54.1015L109.845 53.1071ZM102.181 53.8779C101.911 53.819 101.74 53.5525 101.799 53.2828C101.858 53.013 102.124 52.842 102.394 52.9009L102.181 53.8779ZM98.8667 51.7571C99.1203 51.8662 99.2376 52.1602 99.1285 52.4139C99.0195 52.6676 98.7254 52.7849 98.4717 52.6758L98.8667 51.7571ZM91.8763 48.6403C91.6592 48.4697 91.6214 48.1554 91.792 47.9382C91.9626 47.7211 92.2769 47.6833 92.4941 47.8539L91.8763 48.6403ZM89.6349 45.412C89.8383 45.5989 89.8516 45.9152 89.6648 46.1185C89.4779 46.3218 89.1616 46.3352 88.9583 46.1483L89.6349 45.412ZM83.581 40.6811C83.3951 40.4769 83.4099 40.1607 83.614 39.9747C83.8182 39.7888 84.1344 39.8036 84.3204 40.0077L83.581 40.6811ZM81.7935 37.1675C81.9751 37.3755 81.9536 37.6914 81.7456 37.873C81.5375 38.0545 81.2217 38.0331 81.0401 37.825L81.7935 37.1675ZM76.0734 32.043C75.8937 31.8333 75.9181 31.5177 76.1277 31.338C76.3374 31.1583 76.6531 31.1826 76.8328 31.3923L76.0734 32.043ZM74.3377 28.5047C74.5194 28.7126 74.4981 29.0285 74.2902 29.2102C74.0822 29.3919 73.7664 29.3707 73.5847 29.1627L74.3377 28.5047ZM68.4703 23.543C68.2792 23.3437 68.2858 23.0272 68.485 22.8361C68.6843 22.6449 69.0008 22.6515 69.192 22.8508L68.4703 23.543ZM66.493 20.1358C66.6915 20.3278 66.6967 20.6443 66.5047 20.8428C66.3127 21.0413 65.9962 21.0465 65.7977 20.8545L66.493 20.1358ZM60.1064 15.8705C59.8886 15.7008 59.8496 15.3866 60.0193 15.1688C60.1891 14.951 60.5033 14.912 60.7211 15.0817L60.1064 15.8705ZM57.6081 12.8245C57.8374 12.9783 57.8987 13.2889 57.7449 13.5182C57.5911 13.7476 57.2805 13.8088 57.0511 13.655L57.6081 12.8245ZM50.4712 10.0182C50.218 9.90779 50.1023 9.61312 50.2127 9.35999C50.323 9.10686 50.6177 8.99112 50.8708 9.10148L50.4712 10.0182ZM47.2554 7.74455C47.5187 7.82764 47.6648 8.10848 47.5817 8.37183C47.4987 8.63517 47.2178 8.7813 46.9545 8.69822L47.2554 7.74455ZM39.609 7.25336C39.3337 7.23067 39.129 6.98918 39.1517 6.71397C39.1744 6.43876 39.4159 6.23405 39.6911 6.25674L39.609 7.25336ZM35.8363 6.14954C36.1123 6.14247 36.3418 6.36052 36.3489 6.63657C36.356 6.91263 36.1379 7.14214 35.8619 7.14921L35.8363 6.14954ZM28.4111 8.07768C28.1413 8.13675 27.8747 7.96596 27.8157 7.69621C27.7566 7.42646 27.9274 7.15989 28.1972 7.10083L28.4111 8.07768ZM24.4681 8.07772C24.7323 7.9974 25.0116 8.14647 25.092 8.41067C25.1723 8.67488 25.0232 8.95417 24.759 9.03448L24.4681 8.07772ZM17.2171 12.0083C16.9706 12.1329 16.6698 12.0341 16.5452 11.7877C16.4206 11.5413 16.5193 11.2405 16.7658 11.1159L17.2171 12.0083ZM12.9496 13.3403C13.179 13.1865 13.4896 13.2478 13.6433 13.4772C13.7971 13.7066 13.7358 14.0172 13.5064 14.1709L12.9496 13.3403ZM7.175 19.8909C7.00104 20.1053 6.68616 20.1382 6.47169 19.9642C6.25723 19.7902 6.2244 19.4754 6.39836 19.2609L7.175 19.8909ZM3.89606 22.9212C4.0327 22.6812 4.338 22.5974 4.57797 22.7341C4.81793 22.8707 4.90169 23.176 4.76505 23.416L3.89606 22.9212ZM1.75749 31.3989C1.69936 31.6688 1.4334 31.8406 1.16345 31.7824C0.893494 31.7243 0.721771 31.4584 0.779892 31.1884L1.75749 31.3989ZM0.13504 35.5611C0.158142 35.2859 0.399948 35.0816 0.675125 35.1047C0.950302 35.1278 1.15463 35.3696 1.13153 35.6448L0.13504 35.5611ZM1.33891 44.2444C1.37238 44.5185 1.17729 44.7679 0.903183 44.8013C0.629074 44.8348 0.379745 44.6397 0.346283 44.3656L1.33891 44.2444ZM1.06252 48.7065C1.00665 48.436 1.18057 48.1715 1.451 48.1157C1.72144 48.0598 1.98596 48.2337 2.04184 48.5041L1.06252 48.7065ZM4.3922 56.8228C4.48492 57.0829 4.34923 57.3689 4.08911 57.4617C3.82901 57.5544 3.54298 57.4187 3.45026 57.1586L4.3922 56.8228ZM5.0526 61.246C4.94395 60.9921 5.06171 60.6982 5.31558 60.5896C5.56946 60.4809 5.86333 60.5987 5.97195 60.8526L5.0526 61.246ZM134.185 0.945205C134.324 2.20531 134.449 3.4771 134.556 4.75601L133.56 4.83975C133.453 3.56995 133.33 2.30679 133.191 1.05479L134.185 0.945205ZM134.823 8.57958C134.964 11.1366 135.026 13.7045 134.99 16.2476L133.99 16.2331C134.026 13.716 133.964 11.1714 133.825 8.63449L134.823 8.57958ZM134.854 20.0839C134.706 22.6896 134.438 25.2504 134.027 27.7259L133.04 27.5619C133.445 25.1268 133.709 22.6021 133.856 20.027L134.854 20.0839ZM133.267 31.5026C132.651 34.0828 131.85 36.5406 130.831 38.8227L129.918 38.4151C130.908 36.1982 131.69 33.8005 132.294 31.2705L133.267 31.5026ZM129.044 42.2616C127.685 44.5155 126.05 46.5318 124.1 48.2408L123.441 47.4887C125.305 45.8549 126.875 43.9209 128.187 41.7453L129.044 42.2616ZM120.958 50.5492C118.852 51.8333 116.464 52.8194 113.768 53.4574L113.538 52.4843C116.137 51.8693 118.425 50.9221 120.437 49.6954L120.958 50.5492ZM109.951 54.1015C108.713 54.2327 107.421 54.3 106.071 54.3V53.3C107.388 53.3 108.645 53.2344 109.845 53.1071L109.951 54.1015ZM106.071 54.3C104.74 54.3 103.445 54.1538 102.181 53.8779L102.394 52.9009C103.591 53.162 104.814 53.3 106.071 53.3V54.3ZM98.4717 52.6758C96.1886 51.6943 94.0024 50.3102 91.8763 48.6403L92.4941 47.8539C94.5711 49.4853 96.6829 50.8183 98.8667 51.7571L98.4717 52.6758ZM88.9583 46.1483C87.1468 44.4836 85.3621 42.6368 83.581 40.6811L84.3204 40.0077C86.0896 41.9504 87.8527 43.7741 89.6349 45.412L88.9583 46.1483ZM81.0401 37.825C79.4007 35.9466 77.7491 33.9984 76.0734 32.043L76.8328 31.3923C78.5131 33.3532 80.1581 35.2936 81.7935 37.1675L81.0401 37.825ZM73.5847 29.1627C71.9203 27.2582 70.2217 25.3688 68.4703 23.543L69.192 22.8508C70.9578 24.6917 72.6675 26.5936 74.3377 28.5047L73.5847 29.1627ZM65.7977 20.8545C63.9679 19.0842 62.0769 17.4061 60.1064 15.8705L60.7211 15.0817C62.7252 16.6435 64.6432 18.3461 66.493 20.1358L65.7977 20.8545ZM57.0511 13.655C54.9552 12.2496 52.7682 11.0196 50.4712 10.0182L50.8708 9.10148C53.2298 10.1299 55.4691 11.3902 57.6081 12.8245L57.0511 13.655ZM46.9545 8.69822C44.6256 7.96344 42.183 7.46558 39.609 7.25336L39.6911 6.25674C42.3421 6.4753 44.8579 6.98816 47.2554 7.74455L46.9545 8.69822ZM35.8619 7.14921C33.4925 7.20991 31.0129 7.50794 28.4111 8.07768L28.1972 7.10083C30.8579 6.5182 33.4005 6.21194 35.8363 6.14954L35.8619 7.14921ZM24.759 9.03448C23.5867 9.39085 22.3905 9.80079 21.1695 10.2671L20.8127 9.3329C22.0546 8.85863 23.2728 8.4411 24.4681 8.07772L24.759 9.03448ZM21.1695 10.2671C19.7658 10.8031 18.4498 11.3849 17.2171 12.0083L16.7658 11.1159C18.0307 10.4762 19.3784 9.88064 20.8127 9.3329L21.1695 10.2671ZM13.5064 14.1709C10.9603 15.8777 8.86908 17.8023 7.175 19.8909L6.39836 19.2609C8.15775 17.0918 10.3239 15.1004 12.9496 13.3403L13.5064 14.1709ZM4.76505 23.416C3.3363 25.9251 2.35806 28.6095 1.75749 31.3989L0.779892 31.1884C1.39983 28.3091 2.41208 25.5273 3.89606 22.9212L4.76505 23.416ZM1.13153 35.6448C0.894379 38.4683 0.986481 41.3578 1.33891 44.2444L0.346283 44.3656C-0.0132446 41.4209 -0.108627 38.4622 0.13504 35.5611L1.13153 35.6448ZM2.04184 48.5041C2.62758 51.3391 3.43388 54.1346 4.3922 56.8228L3.45026 57.1586C2.47809 54.4315 1.65858 51.5914 1.06252 48.7065L2.04184 48.5041ZM5.97195 60.8526C6.55014 62.2037 7.16062 63.5148 7.7932 64.7758L6.89936 65.2242C6.25787 63.9455 5.63885 62.616 5.0526 61.246L5.97195 60.8526Z" fill="#D0D0D0"/>
</svg>
