<svg width="135" height="66" viewBox="0 0 135 66" fill="none" xmlns="http://www.w3.org/2000/svg">
<path d="M1.80851 1.05479C1.83877 0.780316 1.64079 0.533274 1.36632 0.503012C1.09184 0.472749 0.844794 0.670726 0.814532 0.945205L1.80851 1.05479ZM114.009 9.8L114.187 9.3329L114.009 9.8ZM127.179 65.1575C127.266 65.4196 127.549 65.5615 127.811 65.4745L132.082 64.0572C132.344 63.9702 132.486 63.6872 132.399 63.4251C132.312 63.163 132.029 63.0211 131.767 63.1081L127.971 64.368L126.711 60.5716C126.624 60.3095 126.341 60.1675 126.079 60.2545C125.817 60.3415 125.675 60.6245 125.762 60.8865L127.179 65.1575ZM0.443549 4.75601C0.420424 5.03118 0.624748 5.273 0.89992 5.29612C1.17509 5.31925 1.41691 5.11493 1.44004 4.83975L0.443549 4.75601ZM1.17527 8.63449C1.19043 8.35876 0.979203 8.12295 0.703477 8.10779C0.427751 8.09262 0.19194 8.30385 0.176777 8.57958L1.17527 8.63449ZM0.0103842 16.2476C0.0143869 16.5237 0.241466 16.7443 0.517579 16.7403C0.793692 16.7363 1.01428 16.5092 1.01028 16.2331L0.0103842 16.2476ZM1.14393 20.027C1.12821 19.7513 0.891969 19.5406 0.616274 19.5563C0.34058 19.572 0.129831 19.8082 0.145554 20.0839L1.14393 20.027ZM0.973449 27.7259C1.01873 27.9983 1.27627 28.1824 1.54867 28.1371C1.82108 28.0919 2.0052 27.8343 1.95991 27.5619L0.973449 27.7259ZM2.7057 31.2705C2.64158 31.0019 2.37187 30.8361 2.10327 30.9002C1.83468 30.9643 1.66891 31.234 1.73302 31.5026L2.7057 31.2705ZM4.16869 38.8227C4.28125 39.0749 4.57692 39.188 4.82908 39.0755C5.08124 38.9629 5.1944 38.6673 5.08184 38.4151L4.16869 38.8227ZM6.81278 41.7453C6.67019 41.5088 6.36289 41.4327 6.12641 41.5753C5.88993 41.7179 5.81382 42.0252 5.95641 42.2616L6.81278 41.7453ZM10.9002 48.2408C11.1079 48.4228 11.4238 48.4019 11.6058 48.1942C11.7878 47.9865 11.767 47.6706 11.5593 47.4887L10.9002 48.2408ZM14.5628 49.6954C14.327 49.5516 14.0193 49.6262 13.8756 49.862C13.7318 50.0978 13.8064 50.4054 14.0422 50.5492L14.5628 49.6954ZM21.2319 53.4574C21.5006 53.521 21.77 53.3547 21.8336 53.086C21.8972 52.8173 21.7309 52.5479 21.4622 52.4843L21.2319 53.4574ZM25.1549 53.1071C24.8803 53.078 24.6341 53.277 24.605 53.5516C24.5758 53.8262 24.7748 54.0724 25.0494 54.1015L25.1549 53.1071ZM32.8192 53.8779C33.089 53.819 33.26 53.5525 33.2011 53.2828C33.1422 53.013 32.8758 52.842 32.606 52.9009L32.8192 53.8779ZM36.1333 51.7571C35.8797 51.8662 35.7624 52.1602 35.8715 52.4139C35.9805 52.6676 36.2746 52.7849 36.5283 52.6758L36.1333 51.7571ZM43.1237 48.6403C43.3408 48.4697 43.3786 48.1554 43.208 47.9382C43.0374 47.7211 42.7231 47.6833 42.5059 47.8539L43.1237 48.6403ZM45.3651 45.412C45.1617 45.5989 45.1484 45.9152 45.3352 46.1185C45.5221 46.3218 45.8384 46.3352 46.0417 46.1483L45.3651 45.412ZM51.419 40.6811C51.6049 40.4769 51.5901 40.1607 51.386 39.9747C51.1818 39.7888 50.8656 39.8036 50.6796 40.0077L51.419 40.6811ZM53.2065 37.1675C53.0249 37.3755 53.0464 37.6914 53.2544 37.873C53.4625 38.0545 53.7783 38.0331 53.9599 37.825L53.2065 37.1675ZM58.9266 32.043C59.1063 31.8333 59.0819 31.5177 58.8723 31.338C58.6626 31.1583 58.3469 31.1826 58.1672 31.3923L58.9266 32.043ZM60.6623 28.5047C60.4806 28.7126 60.5019 29.0285 60.7098 29.2102C60.9178 29.3919 61.2336 29.3707 61.4153 29.1627L60.6623 28.5047ZM66.5297 23.543C66.7208 23.3437 66.7142 23.0272 66.515 22.8361C66.3157 22.6449 65.9992 22.6515 65.808 22.8508L66.5297 23.543ZM68.507 20.1358C68.3085 20.3278 68.3033 20.6443 68.4953 20.8428C68.6873 21.0413 69.0038 21.0465 69.2023 20.8545L68.507 20.1358ZM74.8936 15.8705C75.1114 15.7008 75.1504 15.3866 74.9807 15.1688C74.8109 14.951 74.4967 14.912 74.2789 15.0817L74.8936 15.8705ZM77.3919 12.8245C77.1626 12.9783 77.1013 13.2889 77.2551 13.5182C77.4089 13.7476 77.7195 13.8088 77.9489 13.655L77.3919 12.8245ZM84.5288 10.0182C84.782 9.90779 84.8977 9.61312 84.7873 9.35999C84.677 9.10686 84.3823 8.99112 84.1292 9.10148L84.5288 10.0182ZM87.7446 7.74455C87.4813 7.82764 87.3352 8.10848 87.4183 8.37183C87.5013 8.63517 87.7822 8.7813 88.0455 8.69822L87.7446 7.74455ZM95.391 7.25336C95.6663 7.23067 95.871 6.98918 95.8483 6.71397C95.8256 6.43876 95.5841 6.23405 95.3089 6.25674L95.391 7.25336ZM99.1637 6.14954C98.8877 6.14247 98.6582 6.36052 98.6511 6.63657C98.644 6.91263 98.8621 7.14214 99.1381 7.14921L99.1637 6.14954ZM106.589 8.07768C106.859 8.13675 107.125 7.96596 107.184 7.69621C107.243 7.42646 107.073 7.15989 106.803 7.10083L106.589 8.07768ZM110.532 8.07772C110.268 7.9974 109.988 8.14647 109.908 8.41067C109.828 8.67488 109.977 8.95417 110.241 9.03448L110.532 8.07772ZM117.783 12.0083C118.029 12.1329 118.33 12.0341 118.455 11.7877C118.579 11.5413 118.481 11.2405 118.234 11.1159L117.783 12.0083ZM122.05 13.3403C121.821 13.1865 121.51 13.2478 121.357 13.4772C121.203 13.7066 121.264 14.0172 121.494 14.1709L122.05 13.3403ZM127.825 19.8909C127.999 20.1053 128.314 20.1382 128.528 19.9642C128.743 19.7902 128.776 19.4754 128.602 19.2609L127.825 19.8909ZM131.104 22.9212C130.967 22.6812 130.662 22.5974 130.422 22.7341C130.182 22.8707 130.098 23.176 130.235 23.416L131.104 22.9212ZM133.243 31.3989C133.301 31.6688 133.567 31.8406 133.837 31.7824C134.107 31.7243 134.278 31.4584 134.22 31.1884L133.243 31.3989ZM134.865 35.5611C134.842 35.2859 134.6 35.0816 134.325 35.1047C134.05 35.1278 133.845 35.3696 133.868 35.6448L134.865 35.5611ZM133.661 44.2444C133.628 44.5185 133.823 44.7679 134.097 44.8013C134.371 44.8348 134.62 44.6397 134.654 44.3656L133.661 44.2444ZM133.937 48.7065C133.993 48.436 133.819 48.1715 133.549 48.1157C133.279 48.0598 133.014 48.2337 132.958 48.5041L133.937 48.7065ZM130.608 56.8228C130.515 57.0829 130.651 57.3689 130.911 57.4617C131.171 57.5544 131.457 57.4187 131.55 57.1586L130.608 56.8228ZM129.947 61.246C130.056 60.9921 129.938 60.6982 129.684 60.5896C129.431 60.4809 129.137 60.5987 129.028 60.8526L129.947 61.246ZM0.814532 0.945205C0.675602 2.20531 0.551028 3.4771 0.443549 4.75601L1.44004 4.83975C1.54675 3.56995 1.67047 2.30679 1.80851 1.05479L0.814532 0.945205ZM0.176777 8.57958C0.0361611 11.1366 -0.0264803 13.7045 0.0103842 16.2476L1.01028 16.2331C0.97379 13.716 1.03576 11.1714 1.17527 8.63449L0.176777 8.57958ZM0.145554 20.0839C0.294156 22.6896 0.561944 25.2504 0.973449 27.7259L1.95991 27.5619C1.55512 25.1268 1.29079 22.6021 1.14393 20.027L0.145554 20.0839ZM1.73302 31.5026C2.3489 34.0828 3.14995 36.5406 4.16869 38.8227L5.08184 38.4151C4.09222 36.1982 3.3096 33.8005 2.7057 31.2705L1.73302 31.5026ZM5.95641 42.2616C7.31542 44.5155 8.9498 46.5318 10.9002 48.2408L11.5593 47.4887C9.69474 45.8549 8.12463 43.9209 6.81278 41.7453L5.95641 42.2616ZM14.0422 50.5492C16.1483 51.8333 18.5356 52.8194 21.2319 53.4574L21.4622 52.4843C18.8633 51.8693 16.5747 50.9221 14.5628 49.6954L14.0422 50.5492ZM25.0494 54.1015C26.2868 54.2327 27.5793 54.3 28.9288 54.3V53.3C27.6125 53.3 26.3553 53.2344 25.1549 53.1071L25.0494 54.1015ZM28.9288 54.3C30.2596 54.3 31.5548 54.1538 32.8192 53.8779L32.606 52.9009C31.4093 53.162 30.1856 53.3 28.9288 53.3V54.3ZM36.5283 52.6758C38.8114 51.6943 40.9976 50.3102 43.1237 48.6403L42.5059 47.8539C40.4289 49.4853 38.3171 50.8183 36.1333 51.7571L36.5283 52.6758ZM46.0417 46.1483C47.8532 44.4836 49.6379 42.6368 51.419 40.6811L50.6796 40.0077C48.9104 41.9504 47.1473 43.7741 45.3651 45.412L46.0417 46.1483ZM53.9599 37.825C55.5993 35.9466 57.2509 33.9984 58.9266 32.043L58.1672 31.3923C56.4869 33.3532 54.8419 35.2936 53.2065 37.1675L53.9599 37.825ZM61.4153 29.1627C63.0797 27.2582 64.7783 25.3688 66.5297 23.543L65.808 22.8508C64.0422 24.6917 62.3325 26.5936 60.6623 28.5047L61.4153 29.1627ZM69.2023 20.8545C71.0321 19.0842 72.9231 17.4061 74.8936 15.8705L74.2789 15.0817C72.2748 16.6435 70.3568 18.3461 68.507 20.1358L69.2023 20.8545ZM77.9489 13.655C80.0448 12.2496 82.2318 11.0196 84.5288 10.0182L84.1292 9.10148C81.7702 10.1299 79.5309 11.3902 77.3919 12.8245L77.9489 13.655ZM88.0455 8.69822C90.3744 7.96344 92.817 7.46558 95.391 7.25336L95.3089 6.25674C92.6579 6.4753 90.1421 6.98816 87.7446 7.74455L88.0455 8.69822ZM99.1381 7.14921C101.507 7.20991 103.987 7.50794 106.589 8.07768L106.803 7.10083C104.142 6.5182 101.599 6.21194 99.1637 6.14954L99.1381 7.14921ZM110.241 9.03448C111.413 9.39085 112.609 9.80079 113.831 10.2671L114.187 9.3329C112.945 8.85863 111.727 8.4411 110.532 8.07772L110.241 9.03448ZM113.831 10.2671C115.234 10.8031 116.55 11.3849 117.783 12.0083L118.234 11.1159C116.969 10.4762 115.622 9.88064 114.187 9.3329L113.831 10.2671ZM121.494 14.1709C124.04 15.8777 126.131 17.8023 127.825 19.8909L128.602 19.2609C126.842 17.0918 124.676 15.1004 122.05 13.3403L121.494 14.1709ZM130.235 23.416C131.664 25.9251 132.642 28.6095 133.243 31.3989L134.22 31.1884C133.6 28.3091 132.588 25.5273 131.104 22.9212L130.235 23.416ZM133.868 35.6448C134.106 38.4683 134.014 41.3578 133.661 44.2444L134.654 44.3656C135.013 41.4209 135.109 38.4622 134.865 35.5611L133.868 35.6448ZM132.958 48.5041C132.372 51.3391 131.566 54.1346 130.608 56.8228L131.55 57.1586C132.522 54.4315 133.341 51.5914 133.937 48.7065L132.958 48.5041ZM129.028 60.8526C128.45 62.2037 127.839 63.5148 127.207 64.7758L128.101 65.2242C128.742 63.9455 129.361 62.616 129.947 61.246L129.028 60.8526Z" fill="#D0D0D0"/>
</svg>
