<svg width="106" height="98" viewBox="0 0 106 98" fill="none" xmlns="http://www.w3.org/2000/svg">
<g filter="url(#filter0_d_25_189)">
<circle cx="56" cy="48" r="30" fill="url(#paint0_linear_25_189)"/>
</g>
<path fill-rule="evenodd" clip-rule="evenodd" d="M57 42H63.5C63.7761 42 64 42.2239 64 42.5V51.5C64 51.7761 63.7761 52 63.5 52H57C55.8954 52 55 51.1046 55 50H50V57.5C50 57.7761 49.7761 58 49.5 58H48.5C48.2239 58 48 57.7761 48 57.5V38.5C48 38.2239 48.2239 38 48.5 38H49.5C49.7761 38 50 38.2239 50 38.5V40H55C56.1046 40 57 40.8954 57 42ZM50 48H55V42H50V48Z" fill="white"/>
<defs>
<filter id="filter0_d_25_189" x="0.65786" y="0.260502" width="110.684" height="110.684" filterUnits="userSpaceOnUse" color-interpolation-filters="sRGB">
<feFlood flood-opacity="0" result="BackgroundImageFix"/>
<feColorMatrix in="SourceAlpha" type="matrix" values="0 0 0 0 0 0 0 0 0 0 0 0 0 0 0 0 0 0 127 0" result="hardAlpha"/>
<feOffset dy="7.60264"/>
<feGaussianBlur stdDeviation="12.6711"/>
<feComposite in2="hardAlpha" operator="out"/>
<feColorMatrix type="matrix" values="0 0 0 0 0.613889 0 0 0 0 0.624 0 0 0 0 0.866667 0 0 0 0.1 0"/>
<feBlend mode="normal" in2="BackgroundImageFix" result="effect1_dropShadow_25_189"/>
<feBlend mode="normal" in="SourceGraphic" in2="effect1_dropShadow_25_189" result="shape"/>
</filter>
<linearGradient id="paint0_linear_25_189" x1="56" y1="18" x2="56" y2="78" gradientUnits="userSpaceOnUse">
<stop stop-color="#28DD9C"/>
<stop offset="1" stop-color="#00AE70"/>
</linearGradient>
</defs>
</svg>
