<svg width="112" height="98" viewBox="0 0 112 98" fill="none" xmlns="http://www.w3.org/2000/svg">
<g filter="url(#filter0_d_25_190)">
<circle cx="56" cy="48" r="30" fill="url(#paint0_linear_25_190)"/>
</g>
<path d="M64 52H63C62.4477 52 62 52.4477 62 53V56C62 57.1046 61.1046 58 60 58H57C56.4477 58 56 57.5523 56 57V56C56 54.8954 55.1046 54 54 54C52.8954 54 52 54.8954 52 56V57C52 57.5523 51.5523 58 51 58H48C46.8954 58 46 57.1046 46 56V53C46 52.4477 46.4477 52 47 52H48C49.1046 52 50 51.1046 50 50C50 48.8954 49.1046 48 48 48H47C46.4477 48 46 47.5523 46 47V44C46 42.8954 46.8954 42 48 42H51C51.5523 42 52 41.5523 52 41V40C52 38.8954 52.8954 38 54 38C55.1046 38 56 38.8954 56 40V41C56 41.5523 56.4477 42 57 42H60C61.1046 42 62 42.8954 62 44V47C62 47.5523 62.4477 48 63 48H64C65.1046 48 66 48.8954 66 50C66 51.1046 65.1046 52 64 52Z" fill="white"/>
<defs>
<filter id="filter0_d_25_190" x="0.65786" y="0.260502" width="110.684" height="110.684" filterUnits="userSpaceOnUse" color-interpolation-filters="sRGB">
<feFlood flood-opacity="0" result="BackgroundImageFix"/>
<feColorMatrix in="SourceAlpha" type="matrix" values="0 0 0 0 0 0 0 0 0 0 0 0 0 0 0 0 0 0 127 0" result="hardAlpha"/>
<feOffset dy="7.60264"/>
<feGaussianBlur stdDeviation="12.6711"/>
<feComposite in2="hardAlpha" operator="out"/>
<feColorMatrix type="matrix" values="0 0 0 0 0.615686 0 0 0 0 0.623529 0 0 0 0 0.866667 0 0 0 0.1 0"/>
<feBlend mode="normal" in2="BackgroundImageFix" result="effect1_dropShadow_25_190"/>
<feBlend mode="normal" in="SourceGraphic" in2="effect1_dropShadow_25_190" result="shape"/>
</filter>
<linearGradient id="paint0_linear_25_190" x1="25.8919" y1="18" x2="83.4888" y2="80.0417" gradientUnits="userSpaceOnUse">
<stop offset="0.015625" stop-color="#C166FF"/>
<stop offset="1" stop-color="#9800FF"/>
</linearGradient>
</defs>
</svg>
