<svg width="154" height="94" viewBox="0 0 154 94" fill="none" xmlns="http://www.w3.org/2000/svg">
<path d="M89.7491 20.6491L89.241 21.5104L89.7491 20.6491ZM149.393 92.9851C149.909 93.1821 150.487 92.9235 150.684 92.4075L153.894 83.9993C154.091 83.4833 153.832 82.9054 153.316 82.7084C152.8 82.5115 152.222 82.7701 152.025 83.2861L149.172 90.76L141.698 87.907C141.182 87.71 140.604 87.9686 140.407 88.4846C140.21 89.0006 140.469 89.5785 140.985 89.7755L149.393 92.9851ZM3.50887 2.80853C4.05472 2.72448 4.42908 2.21385 4.34503 1.668C4.26098 1.12214 3.75035 0.74778 3.2045 0.831829L3.50887 2.80853ZM13.5593 0.0783291C13.0071 0.0826785 12.5629 0.533906 12.5672 1.08617C12.5716 1.63844 13.0228 2.08262 13.5751 2.07827L13.5593 0.0783291ZM18.6513 2.16355C19.2032 2.18551 19.6684 1.75595 19.6903 1.2041C19.7123 0.652251 19.2827 0.18709 18.7309 0.165133L18.6513 2.16355ZM29.0262 0.973864C28.4775 0.911304 27.9819 1.30542 27.9193 1.85415C27.8568 2.40288 28.2509 2.89843 28.7996 2.96099L29.0262 0.973864ZM33.8473 3.61641C34.3938 3.69581 34.9012 3.31711 34.9806 2.77056C35.06 2.22401 34.6813 1.71658 34.1348 1.63718L33.8473 3.61641ZM44.2872 3.40693C43.7459 3.2972 43.2182 3.64703 43.1084 4.18831C42.9987 4.72958 43.3485 5.25732 43.8898 5.36705L44.2872 3.40693ZM48.8704 6.44596C49.4086 6.57004 49.9454 6.23435 50.0695 5.69618C50.1936 5.15801 49.8579 4.62116 49.3197 4.49709L48.8704 6.44596ZM59.2927 7.07847C58.762 6.92565 58.2079 7.232 58.055 7.76272C57.9022 8.29344 58.2086 8.84756 58.7393 9.00038L59.2927 7.07847ZM63.6172 10.4797C64.1433 10.6475 64.7059 10.3571 64.8738 9.8309C65.0416 9.30474 64.7511 8.74214 64.225 8.57429L63.6172 10.4797ZM73.9461 12.0092C73.4317 11.8083 72.8517 12.0624 72.6508 12.5768C72.4498 13.0913 72.704 13.6712 73.2184 13.8721L73.9461 12.0092ZM77.9242 15.8099C78.4308 16.0299 79.0198 15.7975 79.2397 15.291C79.4597 14.7844 79.2273 14.1954 78.7208 13.9754L77.9242 15.8099ZM88.0073 18.5058C87.5236 18.2394 86.9154 18.4156 86.649 18.8993C86.3825 19.3831 86.5587 19.9913 87.0425 20.2577L88.0073 18.5058ZM91.433 22.8643C91.8972 23.1636 92.5161 23.0299 92.8154 22.5658C93.1147 22.1016 92.981 21.4827 92.5168 21.1834L91.433 22.8643ZM101.026 27.4702C100.601 27.1181 99.9705 27.1777 99.6184 27.6033C99.2664 28.0288 99.326 28.6592 99.7516 29.0112L101.026 27.4702ZM103.681 32.4126C104.091 32.7828 104.724 32.7505 105.094 32.3406C105.464 31.9307 105.432 31.2984 105.022 30.9282L103.681 32.4126ZM112.587 38.2668C112.204 37.8696 111.57 37.8587 111.173 38.2425C110.776 38.6262 110.765 39.2593 111.149 39.6565L112.587 38.2668ZM114.717 43.4559C115.089 43.8636 115.722 43.8922 116.129 43.5197C116.537 43.1472 116.566 42.5146 116.193 42.1069L114.717 43.4559ZM123.095 50.0481C122.743 49.6229 122.112 49.5639 121.687 49.9163C121.262 50.2688 121.203 50.8992 121.555 51.3244L123.095 50.0481ZM124.841 55.3771C125.184 55.8098 125.813 55.8824 126.246 55.5392C126.678 55.196 126.751 54.567 126.408 54.1343L124.841 55.3771ZM132.771 62.504C132.446 62.0577 131.82 61.9596 131.374 62.2849C130.928 62.6102 130.829 63.2357 131.155 63.6821L132.771 62.504ZM134.188 67.9324C134.504 68.3852 135.128 68.4959 135.58 68.1796C136.033 67.8634 136.144 67.24 135.828 66.7872L134.188 67.9324ZM141.661 75.5286C141.365 75.0625 140.747 74.9248 140.281 75.221C139.815 75.5172 139.677 76.1352 139.973 76.6013L141.661 75.5286ZM142.712 81.0336C142.996 81.5073 143.61 81.661 144.084 81.3771C144.558 81.0931 144.711 80.4789 144.427 80.0052L142.712 81.0336ZM149.538 89.2582C149.293 88.763 148.693 88.5597 148.198 88.8042C147.703 89.0487 147.5 89.6484 147.744 90.1436L149.538 89.2582ZM1.05366 3.25526C1.8385 3.08847 2.65759 2.93961 3.50887 2.80853L3.2045 0.831829C2.31903 0.968173 1.46265 1.12368 0.637914 1.29895L1.05366 3.25526ZM13.5751 2.07827C15.2137 2.06536 16.9088 2.09422 18.6513 2.16355L18.7309 0.165133C16.959 0.0946317 15.2321 0.0651547 13.5593 0.0783291L13.5751 2.07827ZM28.7996 2.96099C30.461 3.1504 32.1456 3.36919 33.8473 3.61641L34.1348 1.63718C32.4134 1.38711 30.7085 1.16567 29.0262 0.973864L28.7996 2.96099ZM43.8898 5.36705C45.5473 5.70308 47.2093 6.063 48.8704 6.44596L49.3197 4.49709C47.6414 4.11015 45.9621 3.74647 44.2872 3.40693L43.8898 5.36705ZM58.7393 9.00038C60.3786 9.47242 62.0063 9.96582 63.6172 10.4797L64.225 8.57429C62.5957 8.05453 60.9498 7.55564 59.2927 7.07847L58.7393 9.00038ZM73.2184 13.8721C74.8201 14.4978 76.3908 15.1441 77.9242 15.8099L78.7208 13.9754C77.1635 13.2992 75.5698 12.6435 73.9461 12.0092L73.2184 13.8721ZM87.0425 20.2577C87.7913 20.6701 88.5245 21.0878 89.241 21.5104L90.2572 19.7878C89.523 19.3548 88.7727 18.9274 88.0073 18.5058L87.0425 20.2577ZM89.241 21.5104C89.9689 21.9398 90.6998 22.3915 91.433 22.8643L92.5168 21.1834C91.7625 20.697 91.009 20.2314 90.2572 19.7878L89.241 21.5104ZM99.7516 29.0112C101.063 30.0963 102.374 31.2324 103.681 32.4126L105.022 30.9282C103.695 29.7301 102.362 28.575 101.026 27.4702L99.7516 29.0112ZM111.149 39.6565C112.348 40.8981 113.539 42.1665 114.717 43.4559L116.193 42.1069C115.003 40.8045 113.8 39.5225 112.587 38.2668L111.149 39.6565ZM121.555 51.3244C122.669 52.6679 123.765 54.0207 124.841 55.3771L126.408 54.1343C125.323 52.767 124.218 51.403 123.095 50.0481L121.555 51.3244ZM131.155 63.6821C132.196 65.1104 133.208 66.5294 134.188 67.9324L135.828 66.7872C134.84 65.3732 133.82 63.9432 132.771 62.504L131.155 63.6821ZM139.973 76.6013C140.941 78.1245 141.856 79.6056 142.712 81.0336L144.427 80.0052C143.562 78.5616 142.638 77.0658 141.661 75.5286L139.973 76.6013ZM147.744 90.1436C148.148 90.961 148.513 91.7343 148.837 92.4593L150.663 91.6425C150.327 90.8914 149.951 90.0952 149.538 89.2582L147.744 90.1436Z" fill="#D0D0D0"/>
</svg>
