<svg width="40" height="40" viewBox="0 0 40 40" fill="none" xmlns="http://www.w3.org/2000/svg">
<path fill-rule="evenodd" clip-rule="evenodd" d="M4.44619 6.03235C4.37671 6.16091 4.31403 6.29324 4.25843 6.42875C3.98833 7.08199 3.96811 7.77977 4.02733 8.50873C4.08655 9.22284 4.23821 10.1077 4.42453 11.187L4.43319 11.239L6.52752 23.4308L6.55063 23.5704C6.76295 24.813 6.90016 25.6088 7.16593 26.2902C7.58633 27.3662 8.25835 28.319 9.12249 29.0643C9.98663 29.8096 11.0162 30.3243 12.1201 30.563C12.8206 30.7144 13.6063 30.7144 14.8355 30.7144H15.0377C15.6732 30.7144 16.082 30.7144 16.4792 30.6669C17.7423 30.5149 18.9394 30.005 19.937 29.1942C20.2518 28.9388 20.5393 28.6419 20.9885 28.1802L21.0361 28.1327L27.478 21.5082L27.5256 21.4607C27.9734 21.0005 28.2623 20.7035 28.5121 20.3799C29.2997 19.3546 29.7948 18.1247 29.9421 16.8272C29.9897 16.4174 29.9897 15.9972 29.9897 15.3455V15.1361C29.9897 13.8742 29.9897 13.0666 29.8438 12.348C29.6116 11.2128 29.1104 10.154 28.3848 9.26542C27.6592 8.37689 26.7316 7.68608 25.6841 7.25421C25.0226 6.98103 24.2484 6.83999 23.0395 6.62175L22.9051 6.59651L11.0426 4.44379L10.992 4.43637C9.94199 4.24485 9.08115 4.08896 8.38641 4.02809C7.67723 3.96722 6.99694 3.98801 6.36286 4.26563C6.23152 4.32283 6.10326 4.38726 5.97866 4.45864L13.0633 11.7408C13.1697 11.8427 13.2551 11.9656 13.3143 12.1022C13.3735 12.2388 13.4053 12.3863 13.4079 12.5358C13.4104 12.6853 13.3837 12.8338 13.3292 12.9724C13.2747 13.1111 13.1936 13.237 13.0908 13.3428C12.9879 13.4485 12.8654 13.5319 12.7305 13.5879C12.5956 13.6439 12.4511 13.6714 12.3057 13.6687C12.1602 13.6661 12.0168 13.6334 11.8839 13.5725C11.751 13.5116 11.6314 13.4239 11.5322 13.3145L4.44619 6.03384V6.03235ZM20.2417 17.7239C20.2417 18.5114 19.9374 19.2666 19.3956 19.8235C18.8539 20.3803 18.1191 20.6931 17.353 20.6931C16.5869 20.6931 15.8521 20.3803 15.3104 19.8235C14.7686 19.2666 14.4643 18.5114 14.4643 17.7239C14.4643 16.9364 14.7686 16.1811 15.3104 15.6243C15.8521 15.0674 16.5869 14.7546 17.353 14.7546C18.1191 14.7546 18.8539 15.0674 19.3956 15.6243C19.9374 16.1811 20.2417 16.9364 20.2417 17.7239Z" fill="#34C759"/>
<path fill-rule="evenodd" clip-rule="evenodd" d="M31.5367 21.0196C32.027 20.5156 32.692 20.2324 33.3854 20.2324C34.0789 20.2324 34.7439 20.5156 35.2342 21.0196C35.7245 21.5236 36 22.2071 36 22.9199C36 23.6327 35.7245 24.3162 35.2342 24.8202L25.1237 35.2127C24.8809 35.4623 24.5927 35.6602 24.2755 35.7953C23.9583 35.9303 23.6183 35.9998 23.2749 35.9998C22.9316 35.9998 22.5916 35.9303 22.2744 35.7953C21.9571 35.6602 21.6689 35.4623 21.4261 35.2127C21.1833 34.9631 20.9908 34.6669 20.8594 34.3408C20.728 34.0148 20.6603 33.6653 20.6603 33.3124C20.6603 32.9594 20.728 32.61 20.8594 32.2839C20.9908 31.9578 21.1833 31.6616 21.4261 31.412L31.5367 21.0196Z" fill="#34C759" fill-opacity="0.3"/>
</svg>
