<svg width="32" height="32" viewBox="0 0 32 32" fill="none" xmlns="http://www.w3.org/2000/svg">
<rect width="32" height="32" fill="white"/>
<path d="M17.1435 6.99316V11.2667" stroke="#34C759" stroke-width="0.834362" stroke-linecap="round" stroke-linejoin="round"/>
<path d="M22.6521 7.68457C24.477 8.83843 25.8691 10.5343 26.6212 12.5195C27.3731 14.5047 27.4449 16.6729 26.8254 18.7008C26.2062 20.7288 24.929 22.5082 23.1841 23.7735C21.4395 25.0388 19.3206 25.7223 17.1435 25.7223C14.9664 25.7223 12.8476 25.0388 11.1029 23.7735C9.3581 22.5082 8.08088 20.7288 7.46162 18.7008C6.84218 16.6729 6.91396 14.5047 7.66587 12.5195C8.41795 10.5343 9.81005 8.83843 11.6349 7.68457" stroke="#34C759" stroke-width="0.834362" stroke-linecap="round" stroke-linejoin="round"/>
<path d="M28.6667 23.272C27.046 25.681 24.6644 27.519 21.8761 28.512C19.088 29.5048 16.0429 29.5995 13.1947 28.7817C10.3464 27.9641 7.8476 26.2778 6.07039 23.9744C4.29337 21.6709 3.33334 18.8737 3.33334 15.9993C3.33334 13.125 4.29337 10.3277 6.07039 8.02428C7.8476 5.72083 10.3464 4.03461 13.1947 3.21692C16.0429 2.39925 19.088 2.4939 21.8761 3.48677C24.6644 4.47964 27.046 6.31757 28.6667 8.72661" stroke="#34C759" stroke-width="2.26667" stroke-linecap="round" stroke-linejoin="round"/>
<path d="M12.2324 9.50293C12.038 9.50293 11.8805 9.65599 11.8805 9.84481V22.1525C11.8805 22.3414 12.038 22.4944 12.2324 22.4944H12.7897C12.9841 22.4944 13.1415 22.3414 13.1415 22.1525V17.801H21.1187V22.1525C21.1187 22.3414 21.2762 22.4944 21.4706 22.4944H22.0279C22.2223 22.4944 22.3798 22.3414 22.3798 22.1525V9.84481C22.3798 9.65599 22.2223 9.50293 22.0279 9.50293H21.4706C21.2762 9.50293 21.1187 9.65599 21.1187 9.84481V16.6414H13.1415V9.84481C13.1415 9.65599 12.9841 9.50293 12.7897 9.50293H12.2324Z" fill="#34C759" stroke="#34C759" stroke-width="0.417181" stroke-linejoin="round"/>
</svg>
